<svg width="250" height="238" viewBox="0 0 250 238" fill="none" xmlns="http://www.w3.org/2000/svg">
<path fill-rule="evenodd" clip-rule="evenodd" d="M59.96 136.338C61.517 135.191 63.708 135.524 64.854 137.079C66 138.635 65.6691 140.826 64.113 141.973C39.687 159.975 37.166 160.311 36.215 160.437C35.902 160.479 35.595 160.499 35.295 160.499C30.0343 160.499 26.7783 154.248 23.3415 147.651L23.341 147.65L23.2779 147.529C22.5883 146.205 21.888 144.86 21.166 143.563C17.809 137.519 13.845 129.042 11.505 123.902C9.98205 123.703 7.60605 123.076 5.61305 121.145C4.59305 120.157 3.91705 118.592 3.73505 118.136C3.70105 118.051 3.67005 117.964 3.64505 117.876L1.12505 109.408C0.653047 107.82 1.55705 106.15 3.14505 105.677C4.03905 105.412 4.95005 105.594 5.66705 106.075C5.56305 104.553 6.61405 103.17 8.14905 102.912C9.03205 102.764 9.88205 103.027 10.527 103.55C10.93 102.596 11.805 101.871 12.907 101.733C13.425 101.669 13.923 101.752 14.375 101.93C14.128 98.3867 13.84 95.0167 13.811 94.7097C13.656 93.0617 14.864 91.5967 16.511 91.4387C18.148 91.2777 19.622 92.4827 19.783 94.1307C19.818 94.4837 20.324 100.387 20.584 105.044C20.678 106.715 20.787 108.535 20.878 110.04C22.595 108.89 24.416 108.042 24.894 107.827C26.407 107.147 28.181 107.821 28.861 109.331C29.541 110.842 28.868 112.618 27.357 113.298C26.046 113.891 23.834 115.111 23.017 115.971C20.6177 118.491 20.0468 120.287 20.0266 120.351L20.026 120.353C19.808 121.238 19.219 121.917 18.468 122.289C20.808 127.388 24.339 134.859 27.286 140.163C28.059 141.556 28.81 142.997 29.549 144.416L29.5495 144.417C31.1475 147.485 33.7712 152.522 35.278 153.41C38.269 151.908 49.859 143.783 59.96 136.338ZM126.297 175.895C126.298 175.932 126.299 175.968 126.299 176.005L126.299 175.978C126.299 175.961 126.299 175.943 126.298 175.922C126.298 175.914 126.298 175.905 126.297 175.895ZM128.431 237.066H113.97C112.037 237.066 110.47 235.499 110.47 233.566C110.47 231.633 112.037 230.066 113.97 230.066H125.005C125.055 225.607 124.999 217.311 124.167 208.839C123.329 200.297 121.386 188.899 120.225 182.089C119.427 177.413 119.299 176.619 119.299 176.021C119.299 174.088 120.866 172.521 122.799 172.521C124.678 172.521 126.211 174.001 126.295 175.859C126.353 176.381 126.718 178.524 127.108 180.811L127.108 180.813L127.125 180.913C128.302 187.814 130.272 199.366 131.134 208.155C132.402 221.074 131.948 233.193 131.928 233.703C131.855 235.581 130.311 237.066 128.431 237.066ZM169.325 237.066H152.852C151.004 237.066 149.474 235.629 149.359 233.784C149.334 233.38 148.746 223.812 149.19 217.534C150.201 203.224 155.576 178.952 155.804 177.926C156.223 176.04 158.089 174.849 159.98 175.27C161.867 175.69 163.056 177.559 162.637 179.446C162.582 179.692 157.146 204.238 156.173 218.027C155.914 221.687 156.048 226.775 156.183 230.066H169.325C171.258 230.066 172.825 231.633 172.825 233.566C172.825 235.499 171.258 237.066 169.325 237.066Z" fill="#705B62"/>
<mask id="mask0_0_3719" style="mask-type:luminance" maskUnits="userSpaceOnUse" x="0" y="91" width="173" height="147">
<path fill-rule="evenodd" clip-rule="evenodd" d="M59.96 136.338C61.517 135.191 63.708 135.524 64.854 137.079C66 138.635 65.6691 140.826 64.113 141.973C39.687 159.975 37.166 160.311 36.215 160.437C35.902 160.479 35.595 160.499 35.295 160.499C30.0343 160.499 26.7783 154.248 23.3415 147.651L23.341 147.65L23.2779 147.529C22.5883 146.205 21.888 144.86 21.166 143.563C17.809 137.519 13.845 129.042 11.505 123.902C9.98205 123.703 7.60605 123.076 5.61305 121.145C4.59305 120.157 3.91705 118.592 3.73505 118.136C3.70105 118.051 3.67005 117.964 3.64505 117.876L1.12505 109.408C0.653047 107.82 1.55705 106.15 3.14505 105.677C4.03905 105.412 4.95005 105.594 5.66705 106.075C5.56305 104.553 6.61405 103.17 8.14905 102.912C9.03205 102.764 9.88205 103.027 10.527 103.55C10.93 102.596 11.805 101.871 12.907 101.733C13.425 101.669 13.923 101.752 14.375 101.93C14.128 98.3867 13.84 95.0167 13.811 94.7097C13.656 93.0617 14.864 91.5967 16.511 91.4387C18.148 91.2777 19.622 92.4827 19.783 94.1307C19.818 94.4837 20.324 100.387 20.584 105.044C20.678 106.715 20.787 108.535 20.878 110.04C22.595 108.89 24.416 108.042 24.894 107.827C26.407 107.147 28.181 107.821 28.861 109.331C29.541 110.842 28.868 112.618 27.357 113.298C26.046 113.891 23.834 115.111 23.017 115.971C20.6177 118.491 20.0468 120.287 20.0266 120.351L20.026 120.353C19.808 121.238 19.219 121.917 18.468 122.289C20.808 127.388 24.339 134.859 27.286 140.163C28.059 141.556 28.81 142.997 29.549 144.416L29.5495 144.417C31.1475 147.485 33.7712 152.522 35.278 153.41C38.269 151.908 49.859 143.783 59.96 136.338ZM126.297 175.895C126.298 175.932 126.299 175.968 126.299 176.005L126.299 175.978C126.299 175.961 126.299 175.943 126.298 175.922C126.298 175.914 126.298 175.905 126.297 175.895ZM128.431 237.066H113.97C112.037 237.066 110.47 235.499 110.47 233.566C110.47 231.633 112.037 230.066 113.97 230.066H125.005C125.055 225.607 124.999 217.311 124.167 208.839C123.329 200.297 121.386 188.899 120.225 182.089C119.427 177.413 119.299 176.619 119.299 176.021C119.299 174.088 120.866 172.521 122.799 172.521C124.678 172.521 126.211 174.001 126.295 175.859C126.353 176.381 126.718 178.524 127.108 180.811L127.108 180.813L127.125 180.913C128.302 187.814 130.272 199.366 131.134 208.155C132.402 221.074 131.948 233.193 131.928 233.703C131.855 235.581 130.311 237.066 128.431 237.066ZM169.325 237.066H152.852C151.004 237.066 149.474 235.629 149.359 233.784C149.334 233.38 148.746 223.812 149.19 217.534C150.201 203.224 155.576 178.952 155.804 177.926C156.223 176.04 158.089 174.849 159.98 175.27C161.867 175.69 163.056 177.559 162.637 179.446C162.582 179.692 157.146 204.238 156.173 218.027C155.914 221.687 156.048 226.775 156.183 230.066H169.325C171.258 230.066 172.825 231.633 172.825 233.566C172.825 235.499 171.258 237.066 169.325 237.066Z" fill="white"/>
</mask>
<g mask="url(#mask0_0_3719)">
<ellipse cx="128.698" cy="122.813" rx="189.5" ry="179" fill="#705B62"/>
</g>
<path fill-rule="evenodd" clip-rule="evenodd" d="M248.607 75.9771C248.607 41.2941 220.491 13.1781 185.808 13.1781C168.042 13.1781 152.003 20.5601 140.58 32.4201C138.684 34.3891 135.558 34.3891 133.662 32.4201C122.239 20.5601 106.201 13.1781 88.4329 13.1781C53.7509 13.1781 25.6339 41.2941 25.6339 75.9771C25.6339 84.4351 26.6169 94.4271 29.6489 101.791C39.9389 130.415 60.4669 151.458 71.0979 160.601C91.2979 177.974 121.382 193.274 138.797 193.274C155.58 193.274 184.172 176.229 198.334 164.234C224.742 141.865 238.285 125.609 245.938 97.4741C247.507 89.6231 248.607 82.5811 248.607 75.9771Z" fill="#F29496"/>
<mask id="mask1_0_3719" style="mask-type:luminance" maskUnits="userSpaceOnUse" x="25" y="13" width="224" height="181">
<path fill-rule="evenodd" clip-rule="evenodd" d="M248.607 75.9771C248.607 41.2941 220.491 13.1781 185.808 13.1781C168.042 13.1781 152.003 20.5601 140.58 32.4201C138.684 34.3891 135.558 34.3891 133.662 32.4201C122.239 20.5601 106.201 13.1781 88.4329 13.1781C53.7509 13.1781 25.6339 41.2941 25.6339 75.9771C25.6339 84.4351 26.6169 94.4271 29.6489 101.791C39.9389 130.415 60.4669 151.458 71.0979 160.601C91.2979 177.974 121.382 193.274 138.797 193.274C155.58 193.274 184.172 176.229 198.334 164.234C224.742 141.865 238.285 125.609 245.938 97.4741C247.507 89.6231 248.607 82.5811 248.607 75.9771Z" fill="white"/>
</mask>
<g mask="url(#mask1_0_3719)">
<ellipse cx="122.266" cy="109.533" rx="196.5" ry="195" fill="#FF8F91"/>
</g>
<path fill-rule="evenodd" clip-rule="evenodd" d="M225.352 27.2021C225.67 29.7651 225.853 32.3701 225.853 35.0201C225.853 41.6231 224.753 48.6661 223.184 56.5171C215.531 84.6521 201.988 100.908 175.58 123.277C161.418 135.272 132.826 152.318 116.043 152.318C98.628 152.318 68.544 137.017 48.344 119.644C43.29 115.297 35.997 108.253 28.63 98.9892C28.941 99.9572 29.279 100.894 29.648 101.791C39.939 130.414 60.467 151.458 71.098 160.601C91.298 177.973 121.382 193.274 138.797 193.274C155.58 193.274 184.172 176.229 198.333 164.234C224.742 141.865 238.285 125.609 245.937 97.4732C247.507 89.6232 248.607 82.5802 248.607 75.9771C248.607 56.2841 239.537 38.7161 225.352 27.2021Z" fill="#EA8692"/>
<mask id="mask2_0_3719" style="mask-type:luminance" maskUnits="userSpaceOnUse" x="28" y="27" width="221" height="167">
<path fill-rule="evenodd" clip-rule="evenodd" d="M225.352 27.2021C225.67 29.7651 225.853 32.3701 225.853 35.0201C225.853 41.6231 224.753 48.6661 223.184 56.5171C215.531 84.6521 201.988 100.908 175.58 123.277C161.418 135.272 132.826 152.318 116.043 152.318C98.628 152.318 68.544 137.017 48.344 119.644C43.29 115.297 35.997 108.253 28.63 98.9892C28.941 99.9572 29.279 100.894 29.648 101.791C39.939 130.414 60.467 151.458 71.098 160.601C91.298 177.973 121.382 193.274 138.797 193.274C155.58 193.274 184.172 176.229 198.333 164.234C224.742 141.865 238.285 125.609 245.937 97.4732C247.507 89.6232 248.607 82.5802 248.607 75.9771C248.607 56.2841 239.537 38.7161 225.352 27.2021Z" fill="white"/>
</mask>
<g mask="url(#mask2_0_3719)">
<ellipse cx="134.874" cy="105.033" rx="191.5" ry="190.5" fill="#F57B89"/>
</g>
<path fill-rule="evenodd" clip-rule="evenodd" d="M199.794 74.1887C205.148 74.1887 209.489 69.8477 209.489 64.4937C209.489 59.1397 205.148 54.7997 199.794 54.7997C194.44 54.7997 190.099 59.1397 190.099 64.4937C190.099 69.8477 194.44 74.1887 199.794 74.1887ZM59.6951 82.1228C65.0491 82.1228 69.3901 77.7828 69.3901 72.4288C69.3901 67.0748 65.0491 62.7338 59.6951 62.7338C54.3411 62.7338 50.0001 67.0748 50.0001 72.4288C50.0001 77.7828 54.3411 82.1228 59.6951 82.1228Z" fill="#4AFF35"/>
<mask id="mask3_0_3719" style="mask-type:luminance" maskUnits="userSpaceOnUse" x="50" y="54" width="160" height="29">
<path fill-rule="evenodd" clip-rule="evenodd" d="M199.794 74.1887C205.148 74.1887 209.489 69.8477 209.489 64.4937C209.489 59.1397 205.148 54.7997 199.794 54.7997C194.44 54.7997 190.099 59.1397 190.099 64.4937C190.099 69.8477 194.44 74.1887 199.794 74.1887ZM59.6951 82.1228C65.0491 82.1228 69.3901 77.7828 69.3901 72.4288C69.3901 67.0748 65.0491 62.7338 59.6951 62.7338C54.3411 62.7338 50.0001 67.0748 50.0001 72.4288C50.0001 77.7828 54.3411 82.1228 59.6951 82.1228Z" fill="white"/>
</mask>
<g mask="url(#mask3_0_3719)">
<ellipse cx="115" cy="98.4128" rx="182" ry="175" fill="#FFC5D6"/>
</g>
<path fill-rule="evenodd" clip-rule="evenodd" d="M101.902 10.8823C102.554 11.4173 103.34 11.6773 104.121 11.6773C105.133 11.6773 106.137 11.2403 106.828 10.3983C110.473 5.9573 116.704 8.9803 117.017 9.1363C118.733 10.0113 120.834 9.3353 121.718 7.6223C122.604 5.9053 121.93 3.7943 120.212 2.9073C116.253 0.865296 107.229 -1.1237 101.418 5.9563C100.191 7.4503 100.408 9.6563 101.902 10.8823ZM158.516 13.5852C159.184 14.6322 160.315 15.2042 161.47 15.2042C162.115 15.2042 162.766 15.0262 163.349 14.6542C164.979 13.6152 165.457 11.4512 164.418 9.8222C158.541 0.609196 149.202 1.6322 144.359 4.5672C142.716 5.5622 142.197 7.6872 143.177 9.3392C144.158 10.9922 146.301 11.5352 147.96 10.5692C153.953 7.0852 157.806 12.4712 158.516 13.5852ZM157.231 54.0758C157.097 58.8288 154.262 62.6048 150.898 62.5108C147.535 62.4158 144.917 58.4858 145.05 53.7328C145.184 48.9798 148.019 45.2038 151.382 45.2978C154.747 45.3928 157.365 49.3228 157.231 54.0758ZM102.789 61.7598C106.102 61.8528 108.896 58.0758 109.03 53.3228C109.163 48.5698 106.586 44.6408 103.273 44.5478C99.9606 44.4548 97.1666 48.2318 97.0326 52.9858C96.8986 57.7388 99.4756 61.6668 102.789 61.7598ZM186.14 77.7379L178.523 71.8879C176.987 70.7099 174.791 70.9999 173.615 72.5319C173.064 73.2499 172.847 74.1109 172.914 74.9459C172.483 75.1219 172.079 75.3839 171.733 75.7369C171.606 75.8669 158.771 88.7339 136.437 91.3909C115.26 93.9149 98.677 84.4389 98.511 84.3419C96.842 83.3699 94.702 83.9289 93.726 85.5939C92.748 87.2619 93.308 89.4059 94.975 90.3839C95.637 90.7729 109.621 98.8249 129.072 98.8249C131.707 98.8249 134.447 98.6769 137.263 98.3419C162.174 95.3789 176.167 81.2189 176.75 80.6179C176.992 80.3689 177.173 80.0879 177.326 79.7949L181.876 83.2899C182.512 83.7779 183.262 84.0139 184.005 84.0139C185.056 84.0139 186.095 83.5429 186.785 82.6459C187.961 81.1129 187.673 78.9149 186.14 77.7379ZM238.891 109.247C238.903 109.569 239.982 141.668 235.061 180.94C235.806 181.363 236.373 182.089 236.538 182.999C237.322 187.3 238.357 194.966 236.477 197.982C234.603 200.986 228.521 203.988 226.701 204.836C226.29 205.027 225.86 205.118 225.435 205.118C224.787 205.118 224.158 204.9 223.64 204.513C223.175 204.723 222.689 204.835 222.207 204.835C220.915 204.835 219.671 204.115 219.063 202.877C218.21 201.142 218.926 199.044 220.662 198.192C226.152 195.496 227.713 190.517 228.07 186.88L225.992 188.389L223.225 193.495C222.682 194.498 221.65 195.066 220.584 195.066C220.102 195.066 219.613 194.95 219.159 194.704C217.702 193.915 217.161 192.094 217.95 190.637L221.04 184.932C221.254 184.538 221.553 184.196 221.916 183.933L227.539 179.853C227.743 179.705 227.96 179.597 228.184 179.506C232.951 141.083 231.907 109.815 231.895 109.499C231.826 107.567 233.335 105.944 235.267 105.875C237.22 105.808 238.822 107.315 238.891 109.247Z" fill="#705B62"/>
<mask id="mask4_0_3719" style="mask-type:luminance" maskUnits="userSpaceOnUse" x="93" y="0" width="146" height="206">
<path fill-rule="evenodd" clip-rule="evenodd" d="M101.902 10.8823C102.554 11.4173 103.34 11.6773 104.121 11.6773C105.133 11.6773 106.137 11.2403 106.828 10.3983C110.473 5.9573 116.704 8.9803 117.017 9.1363C118.733 10.0113 120.834 9.3353 121.718 7.6223C122.604 5.9053 121.93 3.7943 120.212 2.9073C116.253 0.865296 107.229 -1.1237 101.418 5.9563C100.191 7.4503 100.408 9.6563 101.902 10.8823ZM158.516 13.5852C159.184 14.6322 160.315 15.2042 161.47 15.2042C162.115 15.2042 162.766 15.0262 163.349 14.6542C164.979 13.6152 165.457 11.4512 164.418 9.8222C158.541 0.609196 149.202 1.6322 144.359 4.5672C142.716 5.5622 142.197 7.6872 143.177 9.3392C144.158 10.9922 146.301 11.5352 147.96 10.5692C153.953 7.0852 157.806 12.4712 158.516 13.5852ZM157.231 54.0758C157.097 58.8288 154.262 62.6048 150.898 62.5108C147.535 62.4158 144.917 58.4858 145.05 53.7328C145.184 48.9798 148.019 45.2038 151.382 45.2978C154.747 45.3928 157.365 49.3228 157.231 54.0758ZM102.789 61.7598C106.102 61.8528 108.896 58.0758 109.03 53.3228C109.163 48.5698 106.586 44.6408 103.273 44.5478C99.9606 44.4548 97.1666 48.2318 97.0326 52.9858C96.8986 57.7388 99.4756 61.6668 102.789 61.7598ZM186.14 77.7379L178.523 71.8879C176.987 70.7099 174.791 70.9999 173.615 72.5319C173.064 73.2499 172.847 74.1109 172.914 74.9459C172.483 75.1219 172.079 75.3839 171.733 75.7369C171.606 75.8669 158.771 88.7339 136.437 91.3909C115.26 93.9149 98.677 84.4389 98.511 84.3419C96.842 83.3699 94.702 83.9289 93.726 85.5939C92.748 87.2619 93.308 89.4059 94.975 90.3839C95.637 90.7729 109.621 98.8249 129.072 98.8249C131.707 98.8249 134.447 98.6769 137.263 98.3419C162.174 95.3789 176.167 81.2189 176.75 80.6179C176.992 80.3689 177.173 80.0879 177.326 79.7949L181.876 83.2899C182.512 83.7779 183.262 84.0139 184.005 84.0139C185.056 84.0139 186.095 83.5429 186.785 82.6459C187.961 81.1129 187.673 78.9149 186.14 77.7379ZM238.891 109.247C238.903 109.569 239.982 141.668 235.061 180.94C235.806 181.363 236.373 182.089 236.538 182.999C237.322 187.3 238.357 194.966 236.477 197.982C234.603 200.986 228.521 203.988 226.701 204.836C226.29 205.027 225.86 205.118 225.435 205.118C224.787 205.118 224.158 204.9 223.64 204.513C223.175 204.723 222.689 204.835 222.207 204.835C220.915 204.835 219.671 204.115 219.063 202.877C218.21 201.142 218.926 199.044 220.662 198.192C226.152 195.496 227.713 190.517 228.07 186.88L225.992 188.389L223.225 193.495C222.682 194.498 221.65 195.066 220.584 195.066C220.102 195.066 219.613 194.95 219.159 194.704C217.702 193.915 217.161 192.094 217.95 190.637L221.04 184.932C221.254 184.538 221.553 184.196 221.916 183.933L227.539 179.853C227.743 179.705 227.96 179.597 228.184 179.506C232.951 141.083 231.907 109.815 231.895 109.499C231.826 107.567 233.335 105.944 235.267 105.875C237.22 105.808 238.822 107.315 238.891 109.247Z" fill="white"/>
</mask>
<g mask="url(#mask4_0_3719)">
<ellipse cx="124.5" cy="118.904" rx="196.5" ry="193" fill="#705B62"/>
</g>
<path fill-rule="evenodd" clip-rule="evenodd" d="M159.566 72.669C147.593 72.669 137.853 62.929 137.853 50.956C137.853 38.983 147.593 29.243 159.566 29.243C171.539 29.243 181.28 38.983 181.28 50.956C181.28 62.929 171.539 72.669 159.566 72.669ZM97.3759 72.669C85.5259 72.669 75.8859 63.029 75.8859 51.18C75.8859 39.332 85.5259 29.692 97.3759 29.692C109.224 29.692 118.864 39.332 118.864 51.18C118.864 63.029 109.224 72.669 97.3759 72.669ZM159.566 22.243C143.959 22.243 131.229 34.762 130.871 50.285C129.052 49.972 127.339 50.086 125.843 50.391C125.423 35.047 112.819 22.692 97.3759 22.692C81.6669 22.692 68.8859 35.472 68.8859 51.18C68.8859 66.889 81.6669 79.669 97.3759 79.669C110.738 79.669 121.976 70.418 125.037 57.985C126.271 57.371 129.004 56.395 131.72 57.96C134.856 70.418 146.15 79.669 159.566 79.669C175.399 79.669 188.28 66.789 188.28 50.956C188.28 35.124 175.399 22.243 159.566 22.243Z" fill="white"/>
</svg>
