<svg width="404" height="364" viewBox="0 0 404 364" fill="none" xmlns="http://www.w3.org/2000/svg">
<rect x="192.991" y="182.717" width="21.7" height="43.39" rx="10.85" transform="rotate(18.6 192.991 182.717)" fill="#72A7FF" stroke="black" stroke-width="6" stroke-linecap="round" stroke-linejoin="round"/>
<rect x="242.699" y="199.445" width="21.7" height="43.39" rx="10.85" transform="rotate(18.6 242.699 199.445)" fill="#72A7FF" stroke="black" stroke-width="6" stroke-linecap="round" stroke-linejoin="round"/>
<path d="M300.71 106C300.71 106 316.84 107.58 323.78 113.7C330.72 119.82 314.87 145.7 314.87 145.7" fill="#72A7FF"/>
<path d="M300.71 106C300.71 106 316.84 107.58 323.78 113.7C330.72 119.82 314.87 145.7 314.87 145.7" stroke="black" stroke-width="6" stroke-linecap="round" stroke-linejoin="round"/>
<path d="M226.93 81.83C226.93 81.83 210.1 71.61 200.88 72.29C191.66 72.97 189.77 97.59 189.77 97.59" fill="#72A7FF"/>
<path d="M226.93 81.83C226.93 81.83 210.1 71.61 200.88 72.29C191.66 72.97 189.77 97.59 189.77 97.59" stroke="black" stroke-width="6" stroke-linecap="round" stroke-linejoin="round"/>
<circle cx="242.05" cy="149.74" r="73.62" fill="#72A7FF" stroke="black" stroke-width="6" stroke-linecap="round" stroke-linejoin="round"/>
<path d="M241.52 120.65C241.52 120.65 240.38 134.19 247.13 136.46C253.88 138.73 261.13 127.77 261.13 127.77" stroke="black" stroke-width="6" stroke-linecap="round" stroke-linejoin="round"/>
<path d="M240.51 113.48C234.3 117.31 241.78 123.41 251.83 121.66C259.08 128.96 267.99 129.12 265.88 121.99" stroke="black" stroke-width="6" stroke-linecap="round" stroke-linejoin="round"/>
<path d="M285.41 113.48L270.98 115.36L280.24 123.86" stroke="black" stroke-width="6" stroke-linecap="round" stroke-linejoin="round"/>
<path d="M231.49 95.33L241.83 105.55L229.32 106.72" stroke="black" stroke-width="6" stroke-linecap="round" stroke-linejoin="round"/>
<ellipse cx="194.934" cy="181.318" rx="9.37" ry="14.11" transform="rotate(-42.9 194.934 181.318)" fill="#9BC3FF"/>
<path d="M309.32 177.77C309.32 177.77 360.32 111.12 343.79 106.32C327.26 101.52 309.62 128.16 309.62 128.16" fill="#72A7FF"/>
<path d="M309.32 177.77C309.32 177.77 360.32 111.12 343.79 106.32C327.26 101.52 309.62 128.16 309.62 128.16" stroke="black" stroke-width="6" stroke-linecap="round" stroke-linejoin="round"/>
<path d="M173.59 130.7C173.59 130.7 171.95 47.7 188.05 53.89C204.15 60.08 202.05 91.95 202.05 91.95" fill="#72A7FF"/>
<path d="M173.59 130.7C173.59 130.7 171.95 47.7 188.05 53.89C204.15 60.08 202.05 91.95 202.05 91.95" stroke="black" stroke-width="6" stroke-linecap="round" stroke-linejoin="round"/>
<path d="M389.92 84.76C394.92 77.45 388.49 66 376.74 70.52C380.26 57.52 364.18 57.1 358.46 61.05C360.76 50.79 341.79 51.95 341.29 62.27C331.53 57.21 324.48 62.63 324.47 73.63C317.34 69.08 302.87 79.07 314.41 90.63C301.09 98.38 310 110.84 317.8 111.16C306.41 114.67 315.59 129.43 324.23 126.39C316.07 131.95 328.87 139.39 334.4 136.32C335.21 145.87 347.4 144.32 351.29 141.32C352.05 149.38 363.29 149.48 366.84 140.66C375.59 145.83 382.01 136.71 380.89 130.05C388.58 132.05 395.35 126.52 392.34 116.85C405.76 116.23 399.84 103.37 391.52 99.91C407.91 96.75 399 82 389.92 84.76Z" fill="#FF79AB" stroke="black" stroke-width="6" stroke-linecap="round" stroke-linejoin="round"/>
<path d="M337.55 87.06C334.4 84.7 326.89 90 332.03 95.7C327.4 95.37 325.93 102.18 330.29 103.8" stroke="black" stroke-width="6" stroke-linecap="round" stroke-linejoin="round"/>
<path d="M349 77.93C348.86 73.72 357 72.53 358.11 76.55" stroke="black" stroke-width="6" stroke-linecap="round" stroke-linejoin="round"/>
<path d="M167.05 15.41C159.44 10.85 148.42 18.03 153.68 29.41C140.5 26.72 141.07 42.8 145.38 48.26C135 46.61 137.38 65.47 147.67 65.32C143.24 75.38 149.1 82.07 160.08 81.39C155.99 88.79 166.87 102.6 177.71 90.39C186.3 103.19 198.16 93.52 198 85.72C202.21 96.85 216.37 86.77 212.79 78.33C218.85 86.13 225.43 72.89 222.05 67.56C231.54 66.15 229.19 54.05 225.97 50.39C233.97 49.12 233.36 37.9 224.33 34.91C228.94 25.91 219.44 20.03 212.86 21.55C214.4 13.75 208.42 7.35002 198.96 10.97C197.49 -2.38998 185.03 4.33002 182.11 12.85C177.89 -3.28998 163.77 6.57002 167.05 15.41Z" fill="#61DA80" stroke="black" stroke-width="6" stroke-linecap="round" stroke-linejoin="round"/>
<path d="M172.65 67.53C170.5 70.83 176.26 77.99 181.65 72.53C181.65 77.18 188.51 78.21 189.85 73.76" stroke="black" stroke-width="6" stroke-linecap="round" stroke-linejoin="round"/>
<path d="M162.82 56.69C158.63 57.09 156.93 49.06 160.87 47.69" stroke="black" stroke-width="6" stroke-linecap="round" stroke-linejoin="round"/>
<path d="M135.288 310.816C140.764 311.529 144.626 316.547 143.913 322.024L140.342 349.442C139.584 355.258 134.255 359.359 128.439 358.602C123.286 357.931 119.652 353.209 120.323 348.055L124.048 319.457C124.386 316.818 125.762 314.422 127.872 312.8C129.981 311.179 132.65 310.465 135.288 310.816Z" fill="#61DA80" stroke="black" stroke-width="6" stroke-linecap="round" stroke-linejoin="round"/>
<path d="M130.37 358.57L115.5 360.5C109.707 361.25 104.402 357.163 103.65 351.37C103.287 348.589 104.044 345.778 105.755 343.555C107.465 341.333 109.989 339.881 112.77 339.52L123.41 338" fill="#61DA80"/>
<path d="M130.37 358.57L115.5 360.5C109.707 361.25 104.402 357.163 103.65 351.37V351.37C103.287 348.589 104.044 345.778 105.755 343.555C107.465 341.333 109.989 339.881 112.77 339.52L123.41 338" stroke="black" stroke-width="6" stroke-linecap="round" stroke-linejoin="round"/>
<path d="M124.7 316.49L141.46 293C143.001 290.827 145.347 289.358 147.975 288.921C150.603 288.483 153.298 289.113 155.46 290.67C157.633 292.212 159.102 294.557 159.539 297.185C159.977 299.813 159.347 302.508 157.79 304.67L143.43 324.97" fill="#61DA80"/>
<path d="M124.7 316.49L141.46 293C143.001 290.827 145.347 289.358 147.975 288.921C150.603 288.483 153.298 289.113 155.46 290.67V290.67C157.633 292.212 159.102 294.557 159.539 297.185C159.977 299.813 159.347 302.508 157.79 304.67L143.43 324.97" stroke="black" stroke-width="6" stroke-linecap="round" stroke-linejoin="round"/>
<path d="M174.732 334.006C173.97 328.536 177.787 323.484 183.257 322.722L210.643 318.907C213.438 318.512 216.276 319.247 218.529 320.949C220.782 322.651 222.264 325.18 222.649 327.977C223.366 333.125 219.774 337.879 214.627 338.596L186.043 342.577C183.405 342.95 180.727 342.255 178.604 340.646C176.48 339.036 175.087 336.646 174.732 334.006Z" fill="#61DA80" stroke="black" stroke-width="6" stroke-linecap="round" stroke-linejoin="round"/>
<path d="M222.1 326.12L227.89 339.94C230.151 345.328 227.617 351.528 222.23 353.79C219.644 354.876 216.733 354.889 214.137 353.828C211.541 352.766 209.474 350.716 208.39 348.13L204.13 338.26" fill="#61DA80"/>
<path d="M222.1 326.12L227.89 339.94C230.151 345.328 227.617 351.528 222.23 353.79V353.79C219.644 354.876 216.733 354.889 214.137 353.828C211.541 352.766 209.474 350.716 208.39 348.13L204.13 338.26" stroke="black" stroke-width="6" stroke-linecap="round" stroke-linejoin="round"/>
<path d="M174.92 335.3L166.59 307.68C165.819 305.137 166.092 302.391 167.35 300.049C168.607 297.708 170.744 295.963 173.29 295.2C175.832 294.429 178.577 294.701 180.918 295.956C183.26 297.211 185.005 299.346 185.77 301.89L191.87 321.84" fill="#61DA80"/>
<path d="M174.92 335.3L166.59 307.68C165.819 305.137 166.092 302.391 167.35 300.049C168.607 297.708 170.744 295.963 173.29 295.2V295.2C175.832 294.429 178.577 294.701 180.918 295.956C183.26 297.211 185.005 299.346 185.77 301.89L191.87 321.84" stroke="black" stroke-width="6" stroke-linecap="round" stroke-linejoin="round"/>
<path d="M99.1001 182.71C99.1001 182.71 75.2801 155.71 67.0301 161.48C49.5801 173.7 88.9001 218.48 88.9001 218.48" fill="#61DA80"/>
<path d="M99.1001 182.71C99.1001 182.71 75.2801 155.71 67.0301 161.48C49.5801 173.7 88.9001 218.48 88.9001 218.48" stroke="black" stroke-width="6" stroke-linecap="round" stroke-linejoin="round"/>
<path d="M167 145C167 145 172.85 116.49 157.13 122.74C141.41 128.99 151 154.22 151 154.22" fill="#61DA80"/>
<path d="M167 145C167 145 172.85 116.49 157.13 122.74C141.41 128.99 151 154.22 151 154.22" stroke="black" stroke-width="6" stroke-linecap="round" stroke-linejoin="round"/>
<circle cx="160.97" cy="226.42" r="83.85" fill="#61DA80" stroke="black" stroke-width="6" stroke-linecap="round" stroke-linejoin="round"/>
<ellipse cx="116.089" cy="174.497" rx="10.65" ry="7.07" transform="rotate(-40.68 116.089 174.497)" fill="#BAFFCC"/>
<path d="M204.91 157.08C204.91 157.08 216.68 130.47 225.86 144.67C235.04 158.87 212.59 173.91 212.59 173.91" fill="#61DA80"/>
<path d="M204.91 157.08C204.91 157.08 216.68 130.47 225.86 144.67C235.04 158.87 212.59 173.91 212.59 173.91" stroke="black" stroke-width="6" stroke-linecap="round" stroke-linejoin="round"/>
<path d="M213.54 266.61C213.54 266.61 252.54 301 256.19 281.7C258.35 270.39 248.19 259.83 239.48 253.03" fill="#61DA80"/>
<path d="M213.54 266.61C213.54 266.61 252.54 301 256.19 281.7C258.35 270.39 248.19 259.83 239.48 253.03" stroke="black" stroke-width="6" stroke-linecap="round" stroke-linejoin="round"/>
<path d="M148.16 229.2C148.16 229.2 143.46 240.87 135.59 238.06C127.72 235.25 131.06 222.32 131.06 222.32" stroke="black" stroke-width="6" stroke-linecap="round" stroke-linejoin="round"/>
<path d="M129.59 211.44C120.31 217.74 128.42 224.44 139.32 222.67C146.55 231.08 159.92 234.62 156.16 221.67" stroke="black" stroke-width="6" stroke-linecap="round" stroke-linejoin="round"/>
<ellipse cx="125.437" cy="198.558" rx="9.45" ry="5.96" transform="rotate(-68.94 125.437 198.558)" fill="black"/>
<path d="M175.58 214.4L163.6 214.58L171.73 223.71" stroke="black" stroke-width="6" stroke-linecap="round" stroke-linejoin="round"/>
<path d="M60.2599 183.75C66.6999 189.75 78.8899 185.08 76.1599 172.89C88.3999 178.24 91.1599 162.51 88.1599 156.31C97.8999 160.06 99.5299 141.31 89.4699 139.31C95.8599 130.45 91.5599 122.74 80.7599 121.12C86.2699 114.78 78.5799 99.12 65.4999 108.76C59.8199 94.54 46.2899 101.47 44.8299 109.08C43.0499 97.39 27.2099 104.25 28.9299 113.18C24.6599 104.35 15.5299 115.84 17.6999 121.71C8.18989 121.11 7.95989 133.36 10.3199 137.58C2.31989 137.15 0.549889 148.17 8.69989 152.95C2.33989 160.79 10.3599 168.43 17.0699 168.31C13.9599 175.56 18.4299 183.02 28.3599 181.47C27.0199 194.75 40.5099 190.82 45.1299 183.15C45.8499 199.67 61.5999 193 60.2599 183.75Z" fill="#FCD97B" stroke="black" stroke-width="6" stroke-linecap="round" stroke-linejoin="round"/>
<path d="M65.64 132C68.42 129.25 64.31 121.1 57.96 125.32C58.96 120.81 52.48 118.38 50.26 122.42" stroke="black" stroke-width="6" stroke-linecap="round" stroke-linejoin="round"/>
<path d="M72.9399 144.55C77.0899 145.03 77.0799 153.18 72.9399 153.7" stroke="black" stroke-width="6" stroke-linecap="round" stroke-linejoin="round"/>
<path d="M240 308.63C233.82 316.4 240.17 329.68 253.62 325.52C248.71 339.75 266.62 341.52 273.31 337.52C269.97 348.8 291.23 348.95 292.57 337.47C303.09 343.86 311.37 338.34 312.22 326.07C319.83 331.69 336.76 321.64 324.75 307.82C340.21 300.17 331.22 285.59 322.54 284.63C335.54 281.58 326.39 264.4 316.54 267.13C326.08 261.55 312.35 252.32 305.95 255.28C305.78 244.55 292.01 245.39 287.47 248.42C287.24 239.36 274.7 238.42 270.06 247.96C260.69 241.52 252.83 251.22 253.56 258.74C245.13 255.89 237.16 261.58 239.78 272.6C224.78 272.28 230.37 287.09 239.4 291.6C220.85 293.87 229.73 311 240 308.63Z" fill="#A87DFF" stroke="black" stroke-width="6" stroke-linecap="round" stroke-linejoin="round"/>
<path d="M298.66 310.05C302 312.92 310.78 307.58 305.48 300.82C310.63 301.54 312.79 294.05 308.05 291.91" stroke="black" stroke-width="6" stroke-linecap="round" stroke-linejoin="round"/>
<path d="M285.18 319.37C285.02 324.08 275.86 324.79 274.91 320.22" stroke="black" stroke-width="6" stroke-linecap="round" stroke-linejoin="round"/>
<path d="M347.1 202.14L376.27 199.51" stroke="black" stroke-width="6" stroke-linecap="round" stroke-linejoin="round"/>
<path d="M342.19 224.22L363.48 239.02" stroke="black" stroke-width="6" stroke-linecap="round" stroke-linejoin="round"/>
<path d="M82.7399 59.43L56.1699 47.12" stroke="black" stroke-width="6" stroke-linecap="round" stroke-linejoin="round"/>
<path d="M98.04 42.77L87.01 19.29" stroke="black" stroke-width="6" stroke-linecap="round" stroke-linejoin="round"/>
<path d="M18.3999 241.16L48.5099 245.1" stroke="black" stroke-width="6" stroke-linecap="round" stroke-linejoin="round"/>
<path d="M48.5099 274.38L29.1299 286.45" stroke="black" stroke-width="6" stroke-linecap="round" stroke-linejoin="round"/>
</svg>
