<svg width="370" height="314" viewBox="0 0 370 314" fill="none" xmlns="http://www.w3.org/2000/svg">
<path d="M82.4601 120.66H270.76C290.449 120.66 306.41 136.621 306.41 156.31V310.22H46.8101V156.31C46.8101 136.621 62.7711 120.66 82.4601 120.66Z" fill="#FCD97B" stroke="black" stroke-width="6" stroke-linecap="round" stroke-linejoin="round"/>
<path d="M278.75 229.7C294.032 229.7 306.42 242.088 306.42 257.37V310.23H46.8101V257.36C46.8156 242.082 59.2022 229.7 74.4801 229.7L278.75 229.7Z" fill="#FCD97B" stroke="black" stroke-width="6" stroke-linecap="round" stroke-linejoin="round"/>
<path d="M164.66 258.63C164.66 258.69 162.5 293.1 151.01 292.52C143.66 292.52 139.93 257.87 139.87 257.82C139.617 255.831 140.982 253.998 142.96 253.67C143.921 253.527 144.899 253.775 145.676 254.357C146.454 254.939 146.966 255.808 147.1 256.77C147.1 256.82 151.1 283.95 152.1 283.95C152.1 283.95 157.53 257.52 157.53 257.47C157.891 255.505 159.743 254.179 161.72 254.47C163.672 254.821 164.981 256.673 164.66 258.63Z" fill="black"/>
<path d="M185.85 288.44C185.853 289.409 185.465 290.338 184.775 291.017C184.084 291.696 183.149 292.069 182.18 292.05L172.85 291.94C170.855 291.929 169.241 290.315 169.23 288.32C169.268 286.313 170.903 284.705 172.91 284.7L173.31 284.76L173.55 258.34C171.62 258.22 169.7 257.34 169.7 255.34C169.721 254.373 170.126 253.454 170.826 252.786C171.526 252.118 172.463 251.756 173.43 251.78L182.82 251.95C183.791 251.95 184.721 252.339 185.401 253.031C186.082 253.723 186.456 254.66 186.44 255.63C186.38 257.63 185.27 258.54 183.29 258.49H182.06L181.36 285.49L182 285.55C184 285.64 185.85 286.45 185.85 288.44Z" fill="black"/>
<path fill-rule="evenodd" clip-rule="evenodd" d="M208.04 274.79C210.992 272.959 212.914 269.849 213.23 266.39C213.707 263.425 213.175 260.386 211.72 257.76C210.609 255.793 208.971 254.175 206.99 253.09C205.084 251.989 202.879 251.52 200.69 251.75C198.474 251.972 196.398 252.938 194.8 254.49C191.195 257.975 191.299 262.967 191.646 279.647L191.65 279.86C191.679 280.994 191.824 282.431 191.975 283.928C192.143 285.587 192.319 287.318 192.35 288.79C192.305 290.137 193.006 291.398 194.173 292.072C195.339 292.746 196.782 292.722 197.926 292.01C199.07 291.298 199.729 290.014 199.64 288.67C199.61 286.928 199.437 284.91 199.262 282.886C199.087 280.843 198.91 278.793 198.88 277.01C202.085 277.188 205.272 276.415 208.04 274.79ZM198.77 269.74C198.65 263.12 198.88 260.67 199.88 259.74C202.79 256.94 206.29 258.4 205.77 262.39C205.3 266.24 201.98 269.8 198.77 269.74Z" fill="black"/>
<path d="M104.64 77.45C53.5101 77.45 59.3301 129.95 97.8101 100.71L104.64 77.45Z" fill="#A87DFF"/>
<path d="M104.64 77.45C53.5101 77.45 59.3301 129.95 97.8101 100.71" stroke="black" stroke-width="6" stroke-linecap="round" stroke-linejoin="round"/>
<path d="M247.63 76.36C267.69 75.7 290.38 85.72 287.04 100.68C283.04 118.52 262.13 110.68 262.13 110.68" fill="#A87DFF"/>
<path d="M247.63 76.36C267.69 75.7 290.38 85.72 287.04 100.68C283.04 118.52 262.13 110.68 262.13 110.68" stroke="black" stroke-width="6" stroke-linecap="round" stroke-linejoin="round"/>
<path d="M71.34 153.5C71.34 211.5 118.34 239.11 176.34 239.11C234.34 239.11 281.34 211.51 281.34 153.5C281.34 95.5101 234.33 48.5 176.34 48.5C118.35 48.5 71.34 95.5101 71.34 153.5H71.34Z" fill="#A87DFF" stroke="black" stroke-width="6" stroke-linecap="round" stroke-linejoin="round"/>
<path d="M195.82 137.35C198.49 145.68 187.68 148.05 177.28 142C166.19 147.94 151.04 147 155.85 136.75" stroke="black" stroke-width="6" stroke-linecap="round" stroke-linejoin="round"/>
<ellipse cx="204.35" cy="118.07" rx="7.46" ry="11.83" fill="black"/>
<ellipse cx="148.38" cy="118.07" rx="7.46" ry="11.83" fill="black"/>
<path d="M111.36 102.06H164.5V116.37C164.5 126.151 156.571 134.08 146.79 134.08H129.07C124.373 134.08 119.868 132.214 116.547 128.893C113.226 125.572 111.36 121.067 111.36 116.37V102.06H111.36Z" fill="black"/>
<path d="M185.24 102.06H238.38V116.37C238.38 126.151 230.451 134.08 220.67 134.08H203C198.303 134.08 193.798 132.214 190.477 128.893C187.156 125.572 185.29 121.067 185.29 116.37V102.06H185.24Z" fill="black"/>
<rect x="152.65" y="102.06" width="45.59" height="7.51" fill="black"/>
<ellipse cx="222.599" cy="78.8249" rx="8.85" ry="13.34" transform="rotate(-48.3 222.599 78.8249)" fill="#C5A8FF"/>
<path d="M279.64 176.44H300.3C315.6 176.445 328 188.85 328 204.15V310.22H279.64V176.44Z" fill="#FCD97B" stroke="black" stroke-width="6" stroke-linecap="round" stroke-linejoin="round"/>
<path d="M292.01 223.83V286.1V223.83Z" fill="#FCD97B"/>
<path d="M292.01 223.83V286.1" stroke="black" stroke-width="6" stroke-linecap="round" stroke-linejoin="round"/>
<path d="M294.08 176.44H282.74C268.93 176.44 257.29 187.75 257.55 201.56C257.811 214.982 268.765 225.727 282.19 225.73H285C291.806 225.73 297.324 220.216 297.33 213.41C297.33 210.141 296.031 207.006 293.718 204.695C291.405 202.384 288.269 201.087 285 201.09" fill="#FCD97B"/>
<path d="M294.08 176.44H282.74C268.93 176.44 257.29 187.75 257.55 201.56C257.811 214.982 268.765 225.727 282.19 225.73H285C291.806 225.73 297.324 220.216 297.33 213.41C297.33 210.141 296.031 207.006 293.718 204.695C291.405 202.384 288.269 201.087 285 201.09" stroke="black" stroke-width="6" stroke-linecap="round" stroke-linejoin="round"/>
<rect x="273.32" y="286.1" width="61.01" height="24.12" rx="5.89" fill="#FCD97B" stroke="black" stroke-width="6" stroke-linecap="round" stroke-linejoin="round"/>
<path d="M73.58 310.22H25.21L25.21 204.15C25.21 196.801 28.1294 189.753 33.326 184.556C38.5227 179.359 45.5708 176.44 52.92 176.44H73.58L73.58 310.22Z" fill="#FCD97B" stroke="black" stroke-width="6" stroke-linecap="round" stroke-linejoin="round"/>
<path d="M61.22 223.83V286.1V223.83Z" fill="#FCD97B"/>
<path d="M61.22 223.83V286.1" stroke="black" stroke-width="6" stroke-linecap="round" stroke-linejoin="round"/>
<path d="M59.14 176.44H70.49C84.3 176.44 95.94 187.75 95.68 201.56C95.4183 214.998 84.4402 225.749 71 225.73H68.22C61.4182 225.724 55.9055 220.212 55.9 213.41C55.9 206.606 61.4159 201.09 68.22 201.09" fill="#FCD97B"/>
<path d="M59.14 176.44H70.49C84.3 176.44 95.94 187.75 95.68 201.56C95.4183 214.998 84.4402 225.749 71 225.73H68.22C61.4182 225.724 55.9055 220.212 55.9 213.41C55.9 206.606 61.4159 201.09 68.22 201.09" stroke="black" stroke-width="6" stroke-linecap="round" stroke-linejoin="round"/>
<rect x="79.91" y="310.22" width="61.01" height="24.12" rx="5.89" transform="rotate(-180 79.91 310.22)" fill="#FCD97B" stroke="black" stroke-width="6" stroke-linecap="round" stroke-linejoin="round"/>
<path d="M319.61 167C319.61 178.79 306.71 176.2 290.78 176.2C274.85 176.2 262 178.79 262 167C262 155.21 274.91 145.66 290.83 145.66C306.75 145.66 319.61 155.22 319.61 167Z" fill="#A87DFF" stroke="black" stroke-width="6" stroke-linecap="round" stroke-linejoin="round"/>
<path d="M90.05 167C90.05 178.79 77.15 176.2 61.22 176.2C45.29 176.2 32.39 178.79 32.39 167C32.39 155.21 45.3 145.66 61.22 145.66C77.14 145.66 90.05 155.22 90.05 167Z" fill="#A87DFF" stroke="black" stroke-width="6" stroke-linecap="round" stroke-linejoin="round"/>
<path d="M176.37 48.48L168.19 16.07L185.24 22.07L204.35 3.82996L215.71 25.7L234.23 24.29L216.56 56.5C201.2 59 187.24 57.88 176.37 48.48Z" fill="#FCD97B" stroke="black" stroke-width="6" stroke-linecap="round" stroke-linejoin="round"/>
<path d="M35 109.57C26.42 110.39 18.69 114.33 19.54 127.67H19.41C20.25 114.33 12.53 110.39 3.94995 109.57C12.53 108.75 20.25 104.82 19.41 91.48H19.54C18.65 104.82 26.38 108.75 35 109.57Z" fill="white" stroke="black" stroke-width="6" stroke-linecap="round" stroke-linejoin="round"/>
<path d="M366.09 176.44C357.67 177.25 350.09 181.11 350.91 194.21H350.79C351.61 181.11 344.03 177.21 335.61 176.44C344.03 175.64 351.61 171.78 350.79 158.68H350.91C350.09 171.78 357.67 175.64 366.09 176.44Z" fill="white" stroke="black" stroke-width="6" stroke-linecap="round" stroke-linejoin="round"/>
<path d="M308.27 30.71C296.72 31.82 286.32 37.11 287.45 55.08H287.28C288.42 37.08 278.01 31.82 266.46 30.71C278.01 29.6 288.46 24.31 287.28 6.33997H287.45C286.32 24.31 296.72 29.6 308.27 30.71Z" fill="white" stroke="black" stroke-width="6" stroke-linecap="round" stroke-linejoin="round"/>
</svg>
